{
  "accessors": [
    {
      "bufferView": 2,
      "componentType": 5126,
      "count": 266,
      "max": [
        0.7000000476837158,
        0.375,
        0.015696492046117783
      ],
      "min": [
        -0.7000000476837158,
        -0.375,
        -0.02500000037252903
      ],
      "type": "VEC3"
    },
    {
      "bufferView": 2,
      "byteOffset": 3192,
      "componentType": 5126,
      "count": 266,
      "max": [
        0.9780234694480896,
        0.9780234694480896,
        1.0
      ],
      "min": [
        -0.9780234694480896,
        -0.9780234694480896,
        -0.9790007472038269
      ],
      "type": "VEC3"
    },
    {
      "bufferView": 1,
      "componentType": 5126,
      "count": 266,
      "max": [
        0.8888178467750549,
        0.7295210957527161
      ],
      "min": [
        0.003954768180847168,
        0.003954753279685974
      ],
      "type": "VEC2"
    },
    {
      "bufferView": 1,
      "byteOffset": 2128,
      "componentType": 5126,
      "count": 266,
      "max": [
        0.8888178467750549,
        0.7295210957527161
      ],
      "min": [
        0.003954768180847168,
        0.003954753279685974
      ],
      "type": "VEC2"
    },
    {
      "bufferView": 0,
      "componentType": 5125,
      "count": 1140,
      "type": "SCALAR"
    },
    {
      "bufferView": 2,
      "byteOffset": 6384,
      "componentType": 5126,
      "count": 2202,
      "max": [
        1.2650612592697144,
        0.6145541071891785,
        0.01777712255716324
      ],
      "min": [
        -0.03974762558937073,
        -0.0397481769323349,
        -0.0593748465180397
      ],
      "type": "VEC3"
    },
    {
      "bufferView": 2,
      "byteOffset": 32808,
      "componentType": 5126,
      "count": 2202,
      "max": [
        1.0,
        1.0,
        1.0
      ],
      "min": [
        -1.0,
        -1.0,
        -1.0
      ],
      "type": "VEC3"
    },
    {
      "bufferView": 1,
      "byteOffset": 4256,
      "componentType": 5126,
      "count": 2202,
      "max": [
        0.7727924585342407,
        0.7799388766288757
      ],
      "min": [
        0.003954768180847168,
        0.6952298879623413
      ],
      "type": "VEC2"
    },
    {
      "bufferView": 1,
      "byteOffset": 21872,
      "componentType": 5126,
      "count": 2202,
      "max": [
        0.7727924585342407,
        0.7799388766288757
      ],
      "min": [
        0.003954768180847168,
        0.6952298879623413
      ],
      "type": "VEC2"
    },
    {
      "bufferView": 0,
      "byteOffset": 4560,
      "componentType": 5125,
      "count": 9168,
      "type": "SCALAR"
    },
    {
      "bufferView": 2,
      "byteOffset": 59232,
      "componentType": 5126,
      "count": 13313,
      "max": [
        1.2328680753707886,
        0.6041187644004822,
        0.0015012711519375443
      ],
      "min": [
        -0.05737784132361412,
        -0.029395220801234245,
        -0.0007317903218790889
      ],
      "type": "VEC3"
    },
    {
      "bufferView": 2,
      "byteOffset": 218988,
      "componentType": 5126,
      "count": 13313,
      "max": [
        0.9999940395355225,
        0.9998255968093872,
        -0.0023499394301325083
      ],
      "min": [
        -0.9999940395355225,
        -0.9998250007629395,
        -1.0
      ],
      "type": "VEC3"
    },
    {
      "bufferView": 1,
      "byteOffset": 39488,
      "componentType": 5126,
      "count": 13313,
      "max": [
        0.8068561553955078,
        0.8097730875015259
      ],
      "min": [
        0.003954753279685974,
        0.6952299475669861
      ],
      "type": "VEC2"
    },
    {
      "bufferView": 1,
      "byteOffset": 145992,
      "componentType": 5126,
      "count": 13313,
      "max": [
        0.8068561553955078,
        0.8097730875015259
      ],
      "min": [
        0.003954753279685974,
        0.6952299475669861
      ],
      "type": "VEC2"
    },
    {
      "bufferView": 0,
      "byteOffset": 41232,
      "componentType": 5125,
      "count": 52320,
      "type": "SCALAR"
    },
    {
      "bufferView": 2,
      "byteOffset": 378744,
      "componentType": 5126,
      "count": 850,
      "max": [
        1.2467840909957886,
        0.5962769389152527,
        -0.05937488377094269
      ],
      "min": [
        -0.02147042751312256,
        -0.021471023559570313,
        -0.6715264916419983
      ],
      "type": "VEC3"
    },
    {
      "bufferView": 2,
      "byteOffset": 388944,
      "componentType": 5126,
      "count": 850,
      "max": [
        0.9998863935470581,
        0.9998859167098999,
        0.6800990104675293
      ],
      "min": [
        -0.9998854398727417,
        -0.9998854398727417,
        -0.8795071244239807
      ],
      "type": "VEC3"
    },
    {
      "bufferView": 1,
      "byteOffset": 252496,
      "componentType": 5126,
      "count": 850,
      "max": [
        0.9960452914237976,
        0.9620149731636047
      ],
      "min": [
        0.05122244358062744,
        0.003954768180847168
      ],
      "type": "VEC2"
    },
    {
      "bufferView": 1,
      "byteOffset": 259296,
      "componentType": 5126,
      "count": 850,
      "max": [
        0.9960452914237976,
        0.9620149731636047
      ],
      "min": [
        0.05122244358062744,
        0.003954768180847168
      ],
      "type": "VEC2"
    },
    {
      "bufferView": 0,
      "byteOffset": 250512,
      "componentType": 5125,
      "count": 3024,
      "type": "SCALAR"
    }
  ],
  "asset": {
    "extras": {
      "author": "lizardrider (https://sketchfab.com/frog2983)",
      "license": "CC-BY-NC-SA-4.0 (http://creativecommons.org/licenses/by-nc-sa/4.0/)",
      "source": "https://sketchfab.com/3d-models/ikea-desk-anfallare-hilver-c165c5f8589346108f554f934b5f6eae",
      "title": "Ikea Desk  ANFALLARE / HILVER"
    },
    "generator": "Sketchfab-11.53.2",
    "version": "2.0"
  },
  "bufferViews": [
    {
      "buffer": 0,
      "byteLength": 262608,
      "name": "floatBufferViews",
      "target": 34963
    },
    {
      "buffer": 0,
      "byteLength": 266096,
      "byteOffset": 262608,
      "byteStride": 8,
      "name": "floatBufferViews",
      "target": 34962
    },
    {
      "buffer": 0,
      "byteLength": 399144,
      "byteOffset": 528704,
      "byteStride": 12,
      "name": "floatBufferViews",
      "target": 34962
    }
  ],
  "buffers": [
    {
      "byteLength": 927848,
      "uri": "scene.bin"
    }
  ],
  "images": [
    {
      "uri": "textures/ikea_desk_baseColor.png"
    }
  ],
  "materials": [
    {
      "doubleSided": true,
      "name": "ikea_desk",
      "pbrMetallicRoughness": {
        "baseColorTexture": {
          "index": 0
        },
        "metallicFactor": 0.0,
        "roughnessFactor": 0.8969684241184829
      }
    }
  ],
  "meshes": [
    {
      "name": "Cube_ikea desk_0",
      "primitives": [
        {
          "attributes": {
            "NORMAL": 1,
            "POSITION": 0,
            "TEXCOORD_0": 2,
            "TEXCOORD_1": 3
          },
          "indices": 4,
          "material": 0,
          "mode": 4
        }
      ]
    },
    {
      "name": "Cylinder_ikea desk_0",
      "primitives": [
        {
          "attributes": {
            "NORMAL": 6,
            "POSITION": 5,
            "TEXCOORD_0": 7,
            "TEXCOORD_1": 8
          },
          "indices": 9,
          "material": 0,
          "mode": 4
        }
      ]
    },
    {
      "name": "Sphere_ikea desk_0",
      "primitives": [
        {
          "attributes": {
            "NORMAL": 11,
            "POSITION": 10,
            "TEXCOORD_0": 12,
            "TEXCOORD_1": 13
          },
          "indices": 14,
          "material": 0,
          "mode": 4
        }
      ]
    },
    {
      "name": "Cylinder.001_ikea desk_0",
      "primitives": [
        {
          "attributes": {
            "NORMAL": 16,
            "POSITION": 15,
            "TEXCOORD_0": 17,
            "TEXCOORD_1": 18
          },
          "indices": 19,
          "material": 0,
          "mode": 4
        }
      ]
    }
  ],
  "nodes": [
    {
      "children": [
        1
      ],
      "matrix": [
        1.0,
        0.0,
        0.0,
        0.0,
        0.0,
        2.220446049250313e-16,
        -1.0,
        0.0,
        0.0,
        1.0,
        2.220446049250313e-16,
        0.0,
        0.0,
        0.0,
        0.0,
        1.0
      ],
      "name": "Sketchfab_model"
    },
    {
      "children": [
        2
      ],
      "matrix": [
        0.009999999776482582,
        0.0,
        0.0,
        0.0,
        0.0,
        0.0,
        0.009999999776482582,
        0.0,
        0.0,
        -0.009999999776482582,
        0.0,
        0.0,
        0.0,
        0.0,
        0.0,
        1.0
      ],
      "name": "565b82f693694144b471cd8c5e5b7b35.fbx"
    },
    {
      "children": [
        3
      ],
      "name": "RootNode"
    },
    {
      "children": [
        4,
        5
      ],
      "matrix": [
        100.0,
        0.0,
        0.0,
        0.0,
        0.0,
        -1.629206793918314e-05,
        -99.99999999999868,
        0.0,
        0.0,
        99.99999999999868,
        -1.629206793918314e-05,
        0.0,
        0.0,
        71.43035888671875,
        0.0,
        1.0
      ],
      "name": "Cube"
    },
    {
      "mesh": 0,
      "name": "Cube_ikea desk_0"
    },
    {
      "children": [
        6,
        7,
        9
      ],
      "matrix": [
        1.0,
        0.0,
        0.0,
        0.0,
        0.0,
        1.0,
        -2.646977960169688e-23,
        0.0,
        0.0,
        2.646977960169688e-23,
        1.0,
        0.0,
        -0.612656831741333,
        -0.2874029576778412,
        -0.04277712106704712,
        1.0
      ],
      "name": "Cylinder"
    },
    {
      "mesh": 1,
      "name": "Cylinder_ikea desk_0"
    },
    {
      "children": [
        8
      ],
      "matrix": [
        1.0,
        0.0,
        0.0,
        0.0,
        0.0,
        1.0,
        -2.646977960169688e-23,
        0.0,
        0.0,
        2.646977960169688e-23,
        1.0,
        0.0,
        0.024911701679229736,
        4.118680953979492e-05,
        0.013734877109527588,
        1.0
      ],
      "name": "Sphere"
    },
    {
      "mesh": 2,
      "name": "Sphere_ikea desk_0"
    },
    {
      "children": [
        10
      ],
      "matrix": [
        1.0,
        0.0,
        0.0,
        0.0,
        0.0,
        1.0,
        -2.646977960169688e-23,
        0.0,
        0.0,
        2.646977960169688e-23,
        1.0,
        0.0,
        0.0,
        0.0,
        0.0,
        1.0
      ],
      "name": "Cylinder.001"
    },
    {
      "mesh": 3,
      "name": "Cylinder.001_ikea desk_0"
    }
  ],
  "samplers": [
    {
      "magFilter": 9729,
      "minFilter": 9987,
      "wrapS": 10497,
      "wrapT": 10497
    }
  ],
  "scene": 0,
  "scenes": [
    {
      "name": "Sketchfab_Scene",
      "nodes": [
        0
      ]
    }
  ],
  "textures": [
    {
      "sampler": 0,
      "source": 0
    }
  ]
}
